<svg id="Capa_1" data-name="Capa 1" xmlns="http://www.w3.org/2000/svg" viewBox="0 0 595.28 595.28"><defs><style>.cls-1{fill:#1d1d1b;}</style></defs><path class="cls-1" d="M286.58,299.86c-1.22-.51-2.09-.1-2.59,1.22a19.56,19.56,0,0,1-1.61,2.83,22.55,22.55,0,0,1-2.67,3.35,12,12,0,0,1-3.35,2.52,4,4,0,0,1-3.36.3q-6.4-2.73-.61-23.19a16.86,16.86,0,0,0,.53-3.05q.07-1.21-1.44-1.83a1.65,1.65,0,0,0-2,.15c-.1-.1-.18-.15-.23-.15s-.13-.05-.23-.15a13.21,13.21,0,0,0-8.92,1.07,30.12,30.12,0,0,0-9.23,7,59.67,59.67,0,0,0-4.43,5.73c-.51.75-1,1.5-1.43,2.27a12.85,12.85,0,0,0-5.59.62,32.86,32.86,0,0,0-7.17,3.28c-.61-1-1.25-2-1.91-2.89s-1.34-1.83-2.06-2.75c-1.2-1.63-2.28-3.18-3.27-4.67a2.72,2.72,0,0,0-.51-.77l0-.05a7.18,7.18,0,0,1-1.37-4.88,6.69,6.69,0,0,1,3-5,13.13,13.13,0,0,1,5.57-2.37c2.14-.3,3.46-.05,4,.76a1.82,1.82,0,0,0,1.22,1.22,2.15,2.15,0,0,0,2.9-1.37,2.42,2.42,0,0,0,0-1.68q-2.3-4.43-8.85-3.51a18.82,18.82,0,0,0-7.93,3.66,10.5,10.5,0,0,0-4.28,7.64,10.79,10.79,0,0,0,1.53,7l.42.69a11.48,11.48,0,0,1-1,3.21,39.28,39.28,0,0,1-2.75,4.95,43.54,43.54,0,0,1-3.66,4.89,13,13,0,0,1-3.81,3.2c-.52.31-.92.36-1.22.15l-.46-.3c-.21-.1-.39-.41-.54-.92a10.33,10.33,0,0,1-.07-3.05,48.76,48.76,0,0,1,1-6.33q.84-4.05,3-10.91a20.71,20.71,0,0,0,1.06-3.89,2,2,0,0,0-1.37-2.06,3.16,3.16,0,0,0-2.14.15.32.32,0,0,1-.23-.07.29.29,0,0,0-.22-.08,13.55,13.55,0,0,0-8.93,1,29.15,29.15,0,0,0-9.23,6.94,59.5,59.5,0,0,0-4.43,5.72,40.36,40.36,0,0,0-3.4,6c-.87,1.52-2.2,3.65-4,6.41q-3.27,5-7.85,11.29t-10.3,13a140.86,140.86,0,0,1-11.9,12.52,89,89,0,0,1-12.51,9.76,28.24,28.24,0,0,1-12.29,4.65q-8.53.93-14.49-5.95A21.21,21.21,0,0,1,103.34,343a45.85,45.85,0,0,1-1.07-12.59,66.66,66.66,0,0,1,2.06-13.5q1.76-6.87,3.89-13a177.46,177.46,0,0,1,10.83-24.49,215.8,215.8,0,0,1,13-21.51,118.4,118.4,0,0,1,12.43-15.41q5.81-5.88,9-6.33a12.71,12.71,0,0,1,8.24,1.37,15.47,15.47,0,0,1,5.5,5.65,34.84,34.84,0,0,1,3.43,8.54q1.29,4.89,2.21,9.92l.16,1.22a3.36,3.36,0,0,0,1,1.52,1.75,1.75,0,0,0,1.75.31,2.1,2.1,0,0,0,1.45-.92,2.21,2.21,0,0,0,.38-1.68l-.15-1.21c-.31-1.43-.66-3.21-1.07-5.35a56.11,56.11,0,0,0-1.75-6.71,50.29,50.29,0,0,0-2.83-6.86,21,21,0,0,0-4.34-5.88,17.87,17.87,0,0,0-6.26-3.81,17.68,17.68,0,0,0-8.32-.69c-2,.3-4.4,1.5-7.09,3.58a61.22,61.22,0,0,0-8.54,8.32,137.92,137.92,0,0,0-9.24,12.05q-4.73,6.87-9.15,14.58t-8.39,16a155.69,155.69,0,0,0-6.72,16.25,143.15,143.15,0,0,0-4,14,78,78,0,0,0-2.06,14.64,47.79,47.79,0,0,0,1.37,13.81,26.27,26.27,0,0,0,6.41,11.6q6.56,7.47,15.87,7.48h1.22a7.22,7.22,0,0,0,1.37-.16,33.75,33.75,0,0,0,14.65-5.57A93.37,93.37,0,0,0,153,346.7a149.44,149.44,0,0,0,13-14.34q6.11-7.62,10.61-14.11c1.24-1.79,2.37-3.44,3.4-5,.06.27.11.54.18.79a6.68,6.68,0,0,0,5.19,4.73,1.69,1.69,0,0,1,.53.08,1.81,1.81,0,0,0,.54.07c2,0,4.35-1.42,6.94-4.27s5.77-7.42,9.54-13.73a24.14,24.14,0,0,0-.31,7.48,6,6,0,0,0,2.6,4.42,4.74,4.74,0,0,0,2.29,1.14,5.85,5.85,0,0,0,3.81-.68,16.41,16.41,0,0,0,4.8-3.74,41.89,41.89,0,0,0,4.58-5.8,37.94,37.94,0,0,0,3.17-5.82l.72,1c.72.91,1.4,1.83,2.06,2.74a28.14,28.14,0,0,1,1.76,2.75,46,46,0,0,0-3.59,3.05,23.86,23.86,0,0,0-2.82,3.2c-1.73,2.24-2.62,4.13-2.67,5.65a7,7,0,0,0,.69,3.66,4.77,4.77,0,0,0,4.27,2.44h.3A9.29,9.29,0,0,0,230,319.7a15.56,15.56,0,0,0,4-6.41,10.14,10.14,0,0,0,.15-7.17,27.8,27.8,0,0,1,5.95-3,15.92,15.92,0,0,1,2.66-.67,27.55,27.55,0,0,0-1.82,6,11.92,11.92,0,0,0,.23,5.57,6.35,6.35,0,0,0,5.19,4.73,3.41,3.41,0,0,0,1.07.15q3.19,0,7.47-4.8t10.53-15.79a29.4,29.4,0,0,0,.61,9.53,9.17,9.17,0,0,0,5.34,6.49,7.61,7.61,0,0,0,6.41-.08,17.69,17.69,0,0,0,5.11-3.81,24,24,0,0,0,3.51-4.73c.86-1.58,1.4-2.57,1.6-3A2,2,0,0,0,286.58,299.86Zm-89.41,1.83a86.09,86.09,0,0,1-5.8,8.47,18.09,18.09,0,0,1-3.36,3.51,3.49,3.49,0,0,1-1.52.69,2.8,2.8,0,0,1-2-1.68,8.16,8.16,0,0,1,0-3.89,23.2,23.2,0,0,1,1.68-5.11c0-.1.09-.19.13-.29l.32-.48a2.88,2.88,0,0,0,.32-.85,38.38,38.38,0,0,1,2.28-3.88,39.84,39.84,0,0,1,4.12-5.18q6.4-6.87,12-6.87H206Q200.68,296,197.17,301.69Zm32.5,9.92a10.72,10.72,0,0,1-3,5c-1.23,1-2,1.35-2.44,1.15-.41-.72.1-2.14,1.52-4.28a22.58,22.58,0,0,1,4.43-4.42A6.63,6.63,0,0,1,229.67,311.61Zm28.3-9.77a96,96,0,0,1-5.8,8.4,17.58,17.58,0,0,1-3.28,3.43,3.54,3.54,0,0,1-1.52.69,2.16,2.16,0,0,1-2-1.68,8.42,8.42,0,0,1,0-3.89,23.08,23.08,0,0,1,1.68-5,43.24,43.24,0,0,1,3.06-5.49,37.38,37.38,0,0,1,4.11-5.26q6.41-6.87,12.06-6.87h.61Q261.56,296.19,258,301.84Z"/><path class="cls-1" d="M379.12,250.27a17,17,0,0,0-.84-5.18,10.38,10.38,0,0,0-2-3.51,10,10,0,0,0-2.59-2.14q-10.23-5.79-18.92,2.44a36.74,36.74,0,0,0-6.87,9,96,96,0,0,0-6,12.74q-2.74,7.08-5.11,15.33t-4.35,16.78q.47-11.28.61-22.12t.08-19.53q-.07-8.7-.46-14.57c-.25-3.92-.58-6.33-1-7.25-.51-1.22-1.47-1.57-2.9-1.07a2.09,2.09,0,0,0-1.14,1.22,2.52,2.52,0,0,0-.08,1.83,21.09,21.09,0,0,1,.76,5.19c.21,2.75.33,6.21.39,10.38s.05,8.92,0,14.26-.13,11-.23,16.94-.26,12-.46,18.23-.46,12.31-.77,18.31a14.68,14.68,0,0,1-6.4,2.29,2,2,0,0,0-1.53.69,1.83,1.83,0,0,0-.45,1.6,2,2,0,0,0,.68,1.53,2.37,2.37,0,0,0,1.6.61,15.78,15.78,0,0,0,5.8-1.68c0,.81,0,1.6-.08,2.36s-.07,1.55-.07,2.37c-.72,4.78-1.32,9.25-1.83,13.42s-.89,7.84-1.15,11-.41,5.72-.46,7.7a9.62,9.62,0,0,0,.23,3.44,2.08,2.08,0,0,0,2.45,1.37,2.25,2.25,0,0,0,1.6-1.14,3.58,3.58,0,0,0,.38-1.3q.76-4.28,1.52-12T331,332.21q.3-3,.84-6.26t1-6.71a91.23,91.23,0,0,0,13.81-11.83,154.28,154.28,0,0,0,13.65-16,148.19,148.19,0,0,0,11.29-17.54,68.83,68.83,0,0,0,6.72-16.4A30.31,30.31,0,0,0,379.12,250.27Zm-5.27,6.11a60.14,60.14,0,0,1-5.8,14.34,148.3,148.3,0,0,1-9.84,15.79,154.54,154.54,0,0,1-12,14.88A98.48,98.48,0,0,1,333.88,313q1.83-10.83,4.42-21.89t5.88-20.67a104.26,104.26,0,0,1,7.24-16.79q4-7.17,8.7-10.22a9.84,9.84,0,0,1,5.49-1.83,12.06,12.06,0,0,1,5.8,1.68Q376.29,246.31,373.85,256.38Z"/><path class="cls-1" d="M497.59,299.18a32.7,32.7,0,0,0-.76-5.57q-2.15-7.94-8.4-8.39a8.64,8.64,0,0,0-6.25,2.06,15.29,15.29,0,0,0-4.73,6.33,10.8,10.8,0,0,0-1.3,4.88,10.27,10.27,0,0,0,.11,1.77A66,66,0,0,0,471,305c-1.88,1.89-3.69,3.8-5.41,5.72q.3-5.64.45-10.6c.1-3.3.18-6.23.23-8.77s0-5.29-.07-8.24a2.76,2.76,0,0,0-.31-1.22,2.1,2.1,0,0,0-2-1.22,2.21,2.21,0,0,0-1.25.23,3.26,3.26,0,0,0-.47.38.41.41,0,0,0-.16.3c-.11.41-.26,1.2-.47,2.37s-.46,1.65-.76,1.45q-5.34-3.06-13.89,2.44a39.61,39.61,0,0,0-6.71,5.49,40,40,0,0,0-5.72,7.17c-.44.71-.83,1.42-1.2,2.13a2,2,0,0,0-.6.77c-.3.71-.58,1.43-.83,2.14s-.64,1.83-1.15,3.36c-.71,2.33-1.68,5.31-2.9,8.92s-2.57,7.15-4,10.6a62.53,62.53,0,0,1-4.81,9.23q-2.6,4-5.18,4.81a2.34,2.34,0,0,1-1.46.15,5.29,5.29,0,0,1-2.06-1.06q-2-1.53-3.12-6.34a71,71,0,0,1-1.61-11.51q-.45-6.72-.3-14.88c0-2.07.11-4.17.19-6.26a2,2,0,0,0,0-.54c.12-3.25.28-6.52.49-9.83q.53-8.48,1.29-16.56t1.76-14.72q1-6.65,2-11.14A22.37,22.37,0,0,1,412.6,244a2,2,0,0,0,.69-1.6,3,3,0,0,0-.69-1.61,2.35,2.35,0,0,0-1.67-.76,1.91,1.91,0,0,0-1.53.76q-1.06,1.08-2.21,5.65T405,257.83c-.71,4.52-1.38,9.59-2,15.18s-1.11,11.32-1.52,17.17c-.26,3.72-.45,7.39-.59,11,0,0,0,0,0,.05a25.62,25.62,0,0,1-7.79,9.3,18.92,18.92,0,0,1-8.23,3.66,7.83,7.83,0,0,1-3,.08,4.93,4.93,0,0,1-3-1.45,6.66,6.66,0,0,1-1.76-5.26,17.53,17.53,0,0,1,1.76-6.33,9.5,9.5,0,0,0,5.41,1.67,9.9,9.9,0,0,0,3.89-.91,10.48,10.48,0,0,0,3-2.44,15.8,15.8,0,0,0,2.14-3.28,19.9,19.9,0,0,0,1.29-3.51,12.33,12.33,0,0,0,.46-3.13,5.79,5.79,0,0,0-.61-3.05,3.08,3.08,0,0,0-1.38-1.22q-3.19-1.68-7.32,1a28.4,28.4,0,0,0-7.32,6.94,38.3,38.3,0,0,0-3.36,5.42,22.71,22.71,0,0,0-2.13,6,15.9,15.9,0,0,0-.08,6,9.77,9.77,0,0,0,2.82,5.27,10,10,0,0,0,7.63,2.89,10.32,10.32,0,0,0,2.14-.15,22.51,22.51,0,0,0,10.83-5,32.78,32.78,0,0,0,4.4-4.17c0,4.67.07,9,.33,12.79q1.07,18.46,6.41,22.59a9.74,9.74,0,0,0,2.82,1.67,7.4,7.4,0,0,0,2.52.46,7.72,7.72,0,0,0,1.22-.08,6,6,0,0,0,.91-.22,12.14,12.14,0,0,0,6-4.5,50.06,50.06,0,0,0,5.34-8.7,99.76,99.76,0,0,0,4.65-11.22q1-2.82,1.94-5.64a4.58,4.58,0,0,0,2.38,1.75,6.45,6.45,0,0,0,3.2.23,12.81,12.81,0,0,0,5.88-3,50.06,50.06,0,0,0,6.25-6.33,92.94,92.94,0,0,0,6-8.09q2.9-4.35,5-8-.15,4.57-.47,10.61t-.79,12.58a91.1,91.1,0,0,0-8.85,13.58,73.26,73.26,0,0,0-5.27,12.51A38.62,38.62,0,0,0,444.42,353a13.62,13.62,0,0,0,1.6,7.41,5.74,5.74,0,0,0,5.18,3.05,11.05,11.05,0,0,0,2.9-.46q2.29-.91,4.12-5.19a54.32,54.32,0,0,0,3.09-10.53q1.26-6.26,2.21-13.88t1.41-15.26a111,111,0,0,1,11.59-12,23.21,23.21,0,0,0-.14,2.63,13.57,13.57,0,0,0,1.68,6.64,8.51,8.51,0,0,0,7.78,4.27,9.28,9.28,0,0,0,7.63-4A17.81,17.81,0,0,0,496,311a27.13,27.13,0,0,0,1.37-5.8A34.84,34.84,0,0,0,497.59,299.18Zm-116-2.52a2.22,2.22,0,0,1,.46-.61,21.23,21.23,0,0,1,4.88-5,9.77,9.77,0,0,1,3.51-1.68,13.54,13.54,0,0,1-.92,4.05,8.16,8.16,0,0,1-2.74,4,10.54,10.54,0,0,1-1.76.84c-.86.36-2.11,0-3.73-1Zm72.17.38q-2.74,4.2-5.65,7.93a55.6,55.6,0,0,1-5.72,6.41q-2.82,2.67-4.81,3a2.35,2.35,0,0,1-.76-.16c-.3-.1-.66-.5-1.07-1.22a6.61,6.61,0,0,1,0-4.42,22.59,22.59,0,0,1,2.67-5.8,38.32,38.32,0,0,1,4.73-6,35.53,35.53,0,0,1,6-5.12,32.94,32.94,0,0,1,3.2-1.68,9.44,9.44,0,0,1,4-.91,3.67,3.67,0,0,1,2.14.46Q456.54,292.85,453.8,297Zm4.5,40.43q-.69,5.73-1.6,10.3a53.18,53.18,0,0,1-2,7.55c-.71,2-1.47,3.13-2.29,3.44a2.67,2.67,0,0,1-1.67.07,1.91,1.91,0,0,1-.76-.68,9.38,9.38,0,0,1-.92-4.73,29.54,29.54,0,0,1,1.14-7.48,69.05,69.05,0,0,1,3.44-9.53,75.43,75.43,0,0,1,6-10.92Q459,331.76,458.3,337.47Zm34.56-33.11a24.93,24.93,0,0,1-1.07,4.81,12.31,12.31,0,0,1-2,3.81,4.93,4.93,0,0,1-4,2.14,3.81,3.81,0,0,1-3.66-2,7.17,7.17,0,0,1-1-2.83,19.89,19.89,0,0,1-.23-3,8.22,8.22,0,0,0,1.6.46l1.75.3a1.76,1.76,0,0,0,1.6-.53,3,3,0,0,0,.85-1.6c0-1.63-.72-2.45-2.14-2.45a3.45,3.45,0,0,1-3.05-1.83c-1-1.72-1-3.76.15-6.1a10,10,0,0,1,3-4.42,5.75,5.75,0,0,1,3.36-1.38q2.89.31,4.27,5a30.19,30.19,0,0,1,.61,4.58A27.45,27.45,0,0,1,492.86,304.36Z"/></svg>