<?xml version="1.0" encoding="utf-8"?>
<!-- Generator: Adobe Illustrator 25.0.0, SVG Export Plug-In . SVG Version: 6.00 Build 0)  -->
<svg version="1.1" id="Capa_1" xmlns="http://www.w3.org/2000/svg" xmlns:xlink="http://www.w3.org/1999/xlink" x="0px" y="0px"
	 viewBox="0 0 51 51" style="enable-background:new 0 0 51 51;" xml:space="preserve">
<g>
	<path d="M26.7,46.3c0.2,2.4,2.3,4.2,4.7,4.2c2.5,0,4.3-2.1,4.1-4.5c-0.2-2.4-2.3-4.2-4.7-4.2C28.3,41.7,26.4,43.8,26.7,46.3z
		 M30.8,44.6c0.9,0,1.7,0.7,1.8,1.6c0.1,0.8-0.4,1.3-1.2,1.3c-0.9,0-1.7-0.7-1.8-1.6C29.5,45.2,30,44.6,30.8,44.6z"/>
	<path d="M40.7,46.3c0.2,2.4,2.3,4.2,4.7,4.2c2.5,0,4.3-2.1,4.1-4.5c-0.2-2.4-2.3-4.2-4.7-4.2C42.3,41.7,40.4,43.8,40.7,46.3z
		 M44.8,44.6c0.9,0,1.7,0.7,1.8,1.6c0.1,0.8-0.4,1.3-1.2,1.3c-0.9,0-1.7-0.7-1.8-1.6C43.5,45.2,44,44.6,44.8,44.6z"/>
	<path d="M49,27h-3.7l-0.7-7.5c-0.1-0.7-0.7-1.3-1.5-1.3H28.4c-0.4,0-0.8,0.2-1.1,0.5c-0.3,0.3-0.4,0.7-0.4,1.1l0.7,7.2h-4.3l-2.1-5
		c-0.2-0.5-0.8-0.9-1.3-0.9h-5.9c-0.8,0-1.5,0.7-1.5,1.5c0,0.8,0.7,1.5,1.5,1.5H19l7.2,16.8c0.2,0.5,0.8,0.9,1.3,0.9h19.7
		c0.7,0,1.3-0.5,1.4-1.2l1.8-11.8C50.6,27.8,49.9,27,49,27L49,27z M41.9,21.1l0.6,5.9H30.6L30,21.1H41.9z M46,38.8H28.5l-3.8-8.9
		h22.7L46,38.8z"/>
	<path d="M13.9,13.4l6.2,6.2c0.6,0.6,1.5,0.6,2.1,0l6.2-6.2c0.6-0.6,0.6-1.5,0-2.1l-6.2-6.2c-0.6-0.6-1.5-0.6-2.1,0l-6.2,6.2
		C13.3,11.9,13.3,12.8,13.9,13.4L13.9,13.4z M21.1,8.2l4.1,4.1l-4.1,4.1L17,12.3L21.1,8.2z"/>
	<path d="M34.3,6.5c-2.4,0-4.4,2-4.4,4.4s2,4.4,4.4,4.4s4.4-2,4.4-4.4S36.7,6.5,34.3,6.5z M34.3,12.3c-0.8,0-1.5-0.7-1.5-1.5
		c0-0.8,0.7-1.5,1.5-1.5c0.8,0,1.5,0.7,1.5,1.5C35.8,11.7,35.1,12.3,34.3,12.3z"/>
	<path d="M6.1,10.7c0,0,5.8-1.6,5.8-1.6c2.3-0.6,3.7-3.1,3.1-5.4C14.2,1.4,11.8,0,9.5,0.7L3.7,2.2C1.4,2.9,0,5.3,0.7,7.6
		C1.3,10,3.7,11.3,6.1,10.7z M4.5,5l5.8-1.6c0.8-0.2,1.6,0.2,1.8,1c0.2,0.8-0.2,1.6-1,1.8L5.3,7.9c-0.8,0.2-1.6-0.2-1.8-1
		C3.3,6,3.7,5.2,4.5,5z"/>
	<path d="M13.8,32.9H2c-0.8,0-1.5,0.7-1.5,1.5s0.7,1.5,1.5,1.5h11.8c0.8,0,1.5-0.7,1.5-1.5S14.6,32.9,13.8,32.9z"/>
	<path d="M6.5,40.2c0,0.8,0.7,1.5,1.5,1.5h11.7c0.8,0,1.5-0.7,1.5-1.5s-0.7-1.5-1.5-1.5H7.9C7.1,38.8,6.5,39.4,6.5,40.2z"/>
</g>
</svg>
