<?xml version="1.0" encoding="utf-8"?>
<!-- Generator: Adobe Illustrator 25.0.0, SVG Export Plug-In . SVG Version: 6.00 Build 0)  -->
<svg version="1.1" id="Capa_1" xmlns="http://www.w3.org/2000/svg" xmlns:xlink="http://www.w3.org/1999/xlink" x="0px" y="0px"
	 viewBox="0 0 70 35" style="enable-background:new 0 0 70 35;" xml:space="preserve">
<style type="text/css">
	.st0{fill:#1D1D1B;}
</style>
<path class="st0" d="M32.8,17.9c-0.2-0.1-0.4,0-0.4,0.2c0,0,0,0,0,0c-0.1,0.2-0.2,0.3-0.3,0.5c-0.2,0.4-0.6,0.8-1,1
	c-0.2,0.1-0.4,0.1-0.6,0c-0.8-0.3-0.8-1.6,0-4c0-0.2,0-0.3,0-0.5c0,0,0-0.2-0.2-0.3c-0.1-0.1-0.2-0.1-0.3,0l0,0
	c-0.5-0.2-1-0.2-1.5,0c-0.6,0.3-1.2,0.7-1.6,1.2c-0.3,0.3-0.5,0.7-0.8,1c-0.1,0.1-0.2,0.2-0.2,0.4c-0.3-0.1-0.7-0.1-1,0
	c-0.4,0.1-0.8,0.3-1.2,0.6l-0.3-0.5L22.8,17l-0.5-0.5l0,0l0,0c-0.2-0.2-0.3-0.5-0.2-0.8c-0.1-0.4,0-0.7,0.2-1c0.3-0.2,0.6-0.3,1-0.4
	c0.3,0,0.6,0,0.7,0c0,0.1,0.1,0.2,0.2,0.2c0.1,0,0.2,0,0.3,0c0.1,0,0.2-0.1,0.2-0.2c0-0.1,0-0.2,0-0.3c-0.3-0.4-0.9-0.6-1.4-0.4
	c-0.5,0.1-1,0.3-1.4,0.6c-0.4,0.3-0.7,0.8-0.7,1.3c0,0.4,0.1,0.8,0.3,1.2l0,0c0,0.2,0,0.4,0,0.6c-0.1,0.3-0.3,0.6-0.5,0.8
	c-0.2,0.3-0.4,0.6-0.6,0.9c-0.2,0.2-0.4,0.4-0.7,0.5c0,0,0,0-0.2,0l0,0c0-0.1,0-0.1,0-0.2c0-0.2,0-0.4,0-0.5c0-0.4,0.1-0.7,0.2-1.1
	c0.1-0.6,0.3-1.3,0.5-1.9c0.1-0.2,0.2-0.5,0.2-0.7c0,0,0-0.2-0.2-0.3c-0.1-0.1-0.3-0.1-0.4,0l0,0c-0.5-0.2-1-0.2-1.5,0
	c-0.6,0.3-1.2,0.7-1.6,1.2c-0.4,0.4-0.8,0.8-1.2,1.3c-0.2,0.3-0.4,0.7-0.6,1l-0.7,1.1c-0.4,0.6-0.8,1.3-1.4,1.9
	c-0.5,0.7-1.1,1.5-1.8,2.3c-0.6,0.8-1.3,1.5-2.1,2.2c-0.6,0.6-1.3,1.2-2.1,1.7c-0.6,0.4-1.4,0.7-2.1,0.8c-1,0.1-1.9-0.3-2.5-1
	c-0.5-0.5-0.8-1.1-0.9-1.7c-0.1-0.7-0.1-1.5,0-2.2c0-0.8,0.1-1.6,0.2-2.4c0.2-0.8,0.4-1.5,0.7-2.2c0.5-1.5,1.2-2.9,1.9-4.2
	c0.7-1.3,1.4-2.5,2.2-3.7C6.9,9.7,7.6,8.8,8.4,8C9.1,7.3,9.6,7,10,6.9c0.5-0.1,1,0,1.4,0.2c0.4,0.2,0.7,0.6,0.9,1
	c0.3,0.5,0.5,1,0.6,1.5c0,0.6,0.3,1.1,0.4,1.7v0.2c0,0.1,0,0.2,0,0.3c0,0,0,0,0.3,0c0.1,0,0.2,0,0.2,0c0-0.1,0-0.2,0-0.3v-0.3
	c0-0.2,0-0.6,0-0.9c-0.1-0.4-0.2-0.8-0.3-1.1c0-0.4-0.3-0.8-0.5-1.2c-0.2-0.4-0.5-0.7-0.8-1c-0.3-0.3-0.7-0.5-1.1-0.7
	c-0.5-0.1-1-0.1-1.4,0C9.4,6.3,9,6.5,8.6,6.9C8.1,7.3,7.6,7.8,7.1,8.3C6.5,8.9,6,9.6,5.6,10.4C5,11.2,4.5,12,4,12.9
	c-0.5,0.9-1,1.8-1.4,2.8c-0.4,0.9-0.8,1.8-1,2.7c-0.2,0.8-0.5,1.6-0.7,2.4c-0.2,0.8-0.3,1.7-0.3,2.5c0,0.8,0,1.6,0.2,2.4
	c0.2,0.7,0.6,1.4,1.1,2C2.5,28.5,3.5,29,4.5,29H5c0.9-0.1,1.8-0.4,2.5-0.9c0.8-0.6,1.6-1.3,2.3-2c0.8-0.8,1.6-1.6,2.3-2.5
	c0.7-0.9,1.3-1.7,1.8-2.4c0.2-0.3,0.4-0.6,0.6-0.9v0.2c0.1,0.4,0.5,0.7,0.9,0.7h0.2c0.5-0.1,1-0.3,1.3-0.7c0.6-0.7,1.2-1.5,1.6-2.4
	c-0.1,0.4-0.1,0.9,0,1.3c0,0.3,0.2,0.6,0.4,0.8c0.1,0,0.3,0,0.4,0c0.2,0.1,0.4,0.1,0.7,0c0.3-0.2,0.6-0.4,0.8-0.7
	c0.3-0.3,0.5-0.6,0.8-1c0.2-0.3,0.4-0.7,0.6-1v0.2l0.3,0.5l0.3,0.5l-0.4,0.6l-0.5,0.6c-0.3,0.3-0.4,0.6-0.5,1
	c-0.1,0.2-0.1,0.4,0,0.6c0.2,0.3,0.4,0.4,0.7,0.4l0,0c0.3,0,0.7-0.2,0.9-0.5c0.3-0.3,0.6-0.7,0.7-1.1c0.1-0.4,0.1-0.8,0-1.3
	c0.3-0.2,0.7-0.4,1-0.5h0.5c-0.1,0.3-0.2,0.7-0.3,1c-0.1,0.3-0.1,0.7,0,1c0.1,0.4,0.5,0.7,0.9,0.8H26c0.4,0,0.8-0.3,1.3-0.8
	c0.8-0.9,1.4-1.8,2-2.8c-0.1,0.5-0.1,1.1,0,1.6c0.1,0.5,0.4,0.9,0.9,1.1c0.4,0.2,0.8,0.2,1.1,0c0.3-0.2,0.6-0.4,0.9-0.7
	c0.2-0.2,0.4-0.5,0.6-0.8l0.3-0.5C33.2,18.2,33.1,18,32.8,17.9C32.9,17.9,32.8,17.9,32.8,17.9z M17.4,18.2c-0.3,0.5-0.6,1-1,1.5
	c-0.1,0.3-0.3,0.5-0.5,0.8h-0.3c-0.1-0.1-0.2-0.2-0.2-0.3c-0.1-0.2-0.1-0.4,0-0.7c0.1-0.3,0.1-0.6,0.3-0.9l0,0l0,0l0,0l0.4-0.7
	c0.2-0.3,0.5-0.6,0.7-0.9c0.5-0.8,1.2-1.3,2.1-1.5l0,0c-0.4,0.9-0.9,1.8-1.4,2.7H17.4z M23,19.9c-0.1,0.3-0.3,0.6-0.5,0.8
	C22.2,21,22.1,21,22,21c-0.1,0,0-0.4,0.3-0.7c0.2-0.3,0.5-0.5,0.8-0.8c0,0.1,0,0.3,0,0.5H23z M27.9,18.2c-0.3,0.5-0.6,1-1,1.5
	c-0.1,0.2-0.3,0.4-0.6,0.6H26c-0.1,0-0.1-0.1-0.2-0.2c-0.1-0.2-0.1-0.4,0-0.7c0-0.3,0.1-0.6,0.3-0.9c0.2-0.3,0.3-0.7,0.5-1
	c0.2-0.3,0.5-0.6,0.7-0.9c0.5-0.6,1.2-1.1,1.9-1.2l0,0c-0.4,0.9-0.9,1.8-1.4,2.7H27.9z"/>
<path class="st0" d="M48.9,9.3c0-0.3,0-0.6,0-0.9c-0.1-0.2-0.2-0.4-0.3-0.6c-0.1-0.1-0.3-0.3-0.5-0.3c-1-0.7-2.4-0.5-3.3,0.4
	c-0.5,0.5-0.9,1-1.2,1.5c-0.4,0.7-0.7,1.5-1,2.2c-0.3,0.8-0.6,1.7-0.9,2.6s-0.5,1.9-0.7,2.9v-3.8c0-1.3,0-2.4,0-3.5s0-1.8,0-2.5
	c0-0.4-0.1-0.8-0.2-1.3c0-0.2-0.2-0.3-0.5,0c-0.1,0-0.2,0.1-0.2,0.2c0,0.1,0,0.2,0,0.3c0,0.3,0,0.6,0,0.9c0,0.5,0,1,0,1.8
	s0,1.5,0,2.5s0,1.9,0,2.9s0,2.1,0,3.1c0,1,0,2.1,0,3.2c-0.3,0.2-0.7,0.4-1.1,0.4c-0.1,0-0.2,0-0.2,0c0,0.1,0,0.2,0,0.3
	c0,0.1,0,0.2,0,0.2c0.1,0,0.2,0,0.3,0c0.2,0,0.5,0,0.7-0.1c0,0,0,0.3,0,0.4v0.4c0,0.8-0.2,1.6-0.3,2.3c-0.1,0.7,0,1.4-0.2,1.9
	c-0.2,0.6,0,1,0,1.3c0,0.2,0,0.4,0,0.6c0.1,0.2,0.2,0.3,0.4,0.2c0.1,0,0.2-0.1,0.3-0.2v-0.2c0-0.5,0.2-1.2,0.2-2.1
	c0.1-0.9,0.2-1.9,0.2-3c0-0.3,0-0.7,0-1.1s0-0.8,0.2-1.2c1-0.6,1.8-1.2,2.6-2c0.8-0.9,1.6-1.8,2.4-2.8c0.7-0.9,1.4-1.9,2-3
	c0.5-0.9,0.9-1.8,1.1-2.8C48.8,10.2,48.9,9.8,48.9,9.3z M48,10.4c-0.2,0.9-0.6,1.7-1,2.5c-0.5,0.9-1.1,1.8-1.7,2.7
	c-0.6,0.9-1.3,1.8-2.1,2.6c-0.7,0.7-1.4,1.4-2.1,2c0.2-1.2,0.5-2.5,0.8-3.8c0.3-1.2,0.6-2.3,1-3.5c0.3-1,0.8-2,1.3-2.9
	c0.3-0.7,0.9-1.3,1.5-1.8c0.3-0.3,0.7-0.4,1.1-0.4c0.4,0,0.7,0.1,1,0.3C48.1,8.5,48.3,9.2,48,10.4z"/>
<path class="st0" d="M69.3,17.8c0-0.3,0-0.6,0-1c-0.2-0.9-0.7-1.4-1.5-1.4c-0.4,0-0.8,0.1-1.1,0.3c-0.6,0.5-0.9,1.2-1,1.9
	c0,0,0,0,0,0.3l-0.9,0.8c-0.3,0.3-0.7,0.6-0.9,1c0-0.7,0-1.3,0-1.8c0-0.6,0-1,0-1.5c0-0.5,0-0.9,0-1.4c0-0.1,0-0.1,0-0.2
	c-0.1-0.1-0.2-0.2-0.3-0.2h-0.2l0,0l0,0c0,0.1,0,0.3,0,0.4c0,0.2,0,0.3,0,0.2c-0.6-0.3-1.4-0.2-2.4,0.5c-0.4,0.3-0.8,0.6-1.1,0.9
	c-0.4,0.4-0.7,0.8-1,1.2l-0.2,0.4l0,0v0.3c0,0,0,0.3-0.2,0.6L57.2,21c-0.2,0.6-0.5,1.3-0.7,1.8c-0.2,0.6-0.5,1.1-0.8,1.6
	c-0.2,0.4-0.5,0.7-0.9,0.8h-0.3c-0.1,0-0.2-0.1-0.3-0.2c-0.3-0.3-0.4-0.7-0.5-1.2c-0.2-0.7-0.3-1.3-0.3-2c0-0.8,0-1.6,0-2.5
	c0-0.4,0-0.7,0-1.1l0,0v-1.7c0-1,0-1.9,0.2-2.9c0.2-0.9,0-1.8,0.3-2.5c0.1-0.6,0.2-1.3,0.3-1.9c0.1-0.3,0.2-0.7,0.3-1
	c0-0.1,0-0.2,0-0.3V7.7c-0.2-0.1-0.4-0.1-0.6,0c-0.2,0.3-0.3,0.6-0.4,1c0,0.6-0.2,1.2-0.4,2s-0.2,1.6-0.3,2.6s-0.2,1.9-0.3,3v1.9
	l0,0c-0.3,0.6-0.8,1.2-1.4,1.6c-0.4,0.4-0.9,0.6-1.4,0.7c-0.2,0-0.3,0-0.5,0c-0.2,0-0.4-0.1-0.5-0.2c-0.2-0.2-0.4-0.6-0.3-0.9
	c0-0.4,0.1-0.8,0.3-1.1c0.3,0.2,0.6,0.3,0.9,0.3c0.2,0,0.4,0,0.7,0c0.2-0.1,0.4-0.2,0.5-0.4c0.1-0.2,0.3-0.4,0.3-0.6
	c0.1-0.2,0.2-0.4,0.2-0.6c0-0.2,0-0.3,0-0.5c0-0.2,0-0.4,0-0.6c-0.1-0.1-0.1-0.2-0.2-0.2c-0.4-0.2-0.9-0.2-1.3,0
	c-0.5,0.3-0.9,0.7-1.3,1.2c-0.2,0.3-0.4,0.6-0.6,0.9c-0.2,0.3-0.3,0.7-0.4,1c-0.1,0.3-0.1,0.7,0,1c0.1,0.4,0.2,0.7,0.5,0.9
	c0.4,0.3,0.8,0.5,1.3,0.5H50c0.7-0.1,1.3-0.4,1.8-0.8l0.8-0.7c0,0.7,0,1.5,0,2.2c0,2.1,0.5,3.5,1.1,3.9c0.1,0.1,0.3,0.2,0.5,0.3h0.4
	h0.2l0,0c0.4-0.1,0.8-0.4,1-0.8c0.5-0.4,1-0.9,1.3-1.4c0.3-0.6,0.6-1.3,0.8-1.9c0-0.3,0.2-0.6,0.3-1c0.1,0.1,0.2,0.3,0.4,0.3
	c0.2,0.1,0.4,0.1,0.6,0c0.4-0.1,0.8-0.3,1-0.5c0.3-0.3,0.7-0.7,1.1-1.1c0.4-0.4,0.7-0.9,1-1.4l0.9-1.4c0,0.5,0,1.1,0,1.8
	s0,1.4,0,2.2c-0.6,0.7-1.1,1.5-1.5,2.3c-0.4,0.7-0.7,1.4-0.9,2.2c-0.2,0.6-0.3,1.2-0.3,1.8c0,0.4,0.1,0.9,0.3,1.3
	c0.2,0.3,0.5,0.5,0.9,0.5h0.5c0.3,0,0.5-0.4,0.7-0.9c0.2-0.6,0.4-1.2,0.5-1.8c0-0.7,0.3-1.5,0.4-2.4c0.1-0.9,0.2-1.8,0.2-2.6
	c0.6-0.7,1.3-1.4,2-2.1v0.5c0,0.4,0.1,0.8,0.3,1.1c0.3,0.5,0.8,0.8,1.4,0.7c0.5,0,1-0.3,1.3-0.7c0.2-0.2,0.3-0.5,0.5-0.8
	c0-0.3,0-0.7,0.2-1C69.9,18.7,69.3,18.1,69.3,17.8z M49.3,17.3L49.3,17.3c0.2-0.4,0.5-0.7,0.9-1c0.2-0.1,0.4-0.2,0.6-0.3
	c0,0.2,0,0.5,0,0.7c-0.1,0.3-0.3,0.5-0.5,0.7H50C49.8,17.5,49.5,17.5,49.3,17.3L49.3,17.3z M61.8,17.3c-0.3,0.5-0.7,0.9-1,1.4
	c-0.3,0.4-0.6,0.8-1,1.1c-0.2,0.3-0.5,0.4-0.8,0.5l0,0c0,0,0,0-0.2-0.2c-0.1-0.3-0.1-0.5,0-0.8c0.1-0.3,0.3-0.7,0.5-1
	c0.2-0.4,0.5-0.7,0.8-1c0.3-0.3,0.7-0.6,1-0.9l0.6-0.3c0.2,0,0.4,0,0.7,0c0.2,0,0.3,0,0.4,0C62.8,16.2,62.1,17,61.8,17.3L61.8,17.3z
	 M62.6,24.3c0,0.7-0.2,1.3-0.3,1.8c-0.1,0.4-0.2,0.9-0.3,1.3c0,0.3-0.2,0.6-0.4,0.6c-0.1,0-0.2,0-0.3,0l0,0
	c-0.1-0.2-0.2-0.5-0.2-0.8c0-0.4,0.1-0.9,0.2-1.3c0.2-0.6,0.3-1.1,0.6-1.6c0.3-0.7,0.6-1.3,1-1.9L62.6,24.3z M68.5,18.7
	c0,0.3-0.1,0.5-0.2,0.8c-0.1,0.2-0.2,0.5-0.3,0.7c-0.1,0.2-0.4,0.4-0.7,0.4c-0.3,0-0.5-0.1-0.7-0.3c-0.1-0.2-0.1-0.3-0.2-0.5
	c0,0,0-0.3,0-0.5h0.3h0.3c0.1,0,0.2,0,0.3,0c0,0,0,0,0-0.3s0-0.5-0.3-0.5c-0.2,0-0.5-0.1-0.6-0.3c-0.2-0.3-0.2-0.7,0-1
	c0.1-0.3,0.3-0.6,0.5-0.8c0.2-0.1,0.4-0.2,0.6-0.2c0.3,0,0.6,0.3,0.7,0.9c0,0.3,0,0.5,0,0.8C68.4,18.1,68.5,18.4,68.5,18.7z"/>
</svg>
