<svg id="Capa_1" data-name="Capa 1" xmlns="http://www.w3.org/2000/svg" viewBox="0 0 27.16 12.33"><defs><style>.cls-1{fill:#1d1d1b;}</style></defs><path class="cls-1" d="M13,6.27a.1.1,0,0,0-.13.06.41.41,0,0,1-.08.14.81.81,0,0,1-.3.3.18.18,0,0,1-.16,0c-.22-.09-.23-.47,0-1.15a1,1,0,0,0,0-.15s0-.07-.07-.09a.08.08,0,0,0-.1,0h0a.62.62,0,0,0-.44,0,1.44,1.44,0,0,0-.46.35,2.21,2.21,0,0,0-.22.29.41.41,0,0,0-.07.11.72.72,0,0,0-.28,0,1.58,1.58,0,0,0-.35.16l-.1-.14-.1-.14L10,5.86l0,0h0a.35.35,0,0,1-.07-.24A.33.33,0,0,1,10,5.33a.77.77,0,0,1,.28-.12c.1,0,.17,0,.19,0a.09.09,0,0,0,.06.06.14.14,0,0,0,.09,0,.11.11,0,0,0,.06-.07.11.11,0,0,0,0-.08A.38.38,0,0,0,10.27,5a.85.85,0,0,0-.4.18.54.54,0,0,0-.21.38.52.52,0,0,0,.08.34l0,0a.9.9,0,0,1,0,.16,1.49,1.49,0,0,1-.14.24,2.27,2.27,0,0,1-.18.25.77.77,0,0,1-.19.15s0,0-.06,0h0a.11.11,0,0,1,0-.05.35.35,0,0,1,0-.15,1.5,1.5,0,0,1,.05-.31,3.61,3.61,0,0,1,.14-.54,1.85,1.85,0,0,0,.06-.2s0-.07-.07-.1a.14.14,0,0,0-.11,0h0a.62.62,0,0,0-.44,0,1.4,1.4,0,0,0-.46.34A2.21,2.21,0,0,0,8,6.06a1.46,1.46,0,0,0-.17.3l-.2.31c-.11.17-.24.36-.39.56s-.32.43-.51.65a5.81,5.81,0,0,1-.59.62A4.59,4.59,0,0,1,5.54,9a1.44,1.44,0,0,1-.61.23.8.8,0,0,1-.72-.3,1.06,1.06,0,0,1-.27-.5,2.18,2.18,0,0,1,0-.63A3.2,3.2,0,0,1,4,7.12c.06-.23.12-.44.19-.64a9.44,9.44,0,0,1,.54-1.22A10.23,10.23,0,0,1,5.37,4.2,6.27,6.27,0,0,1,6,3.43c.2-.19.34-.3.45-.31a.68.68,0,0,1,.41.06.81.81,0,0,1,.27.28,1.84,1.84,0,0,1,.17.43c0,.16.08.32.11.49v.06a.22.22,0,0,0,0,.08s0,0,.09,0a.1.1,0,0,0,.07,0,.29.29,0,0,0,0-.09V4.34c0-.07,0-.16,0-.26a2,2,0,0,0-.09-.33c0-.12-.09-.23-.14-.35a1.23,1.23,0,0,0-.22-.29,1.08,1.08,0,0,0-.31-.19.91.91,0,0,0-.41,0,.69.69,0,0,0-.35.18,2.68,2.68,0,0,0-.43.41,5.2,5.2,0,0,0-.45.6c-.16.23-.31.47-.46.72s-.28.52-.41.8A6,6,0,0,0,4,6.4c-.07.22-.14.45-.2.69a3.76,3.76,0,0,0-.1.73,2.25,2.25,0,0,0,.07.69,1.25,1.25,0,0,0,.32.57,1,1,0,0,0,.78.37H5a1.6,1.6,0,0,0,.73-.27A4.67,4.67,0,0,0,6.4,8.6a8.67,8.67,0,0,0,.65-.71c.2-.26.38-.49.53-.7a2.71,2.71,0,0,1,.17-.25V7A.34.34,0,0,0,8,7.21h.05A.51.51,0,0,0,8.41,7a4,4,0,0,0,.47-.68,1.17,1.17,0,0,0,0,.37A.3.3,0,0,0,9,6.92a.23.23,0,0,0,.11,0,.28.28,0,0,0,.19,0,1.16,1.16,0,0,0,.24-.19,1.51,1.51,0,0,0,.22-.28,1.71,1.71,0,0,0,.16-.29l0,.05.1.13.09.14L10,6.65l-.14.16a.49.49,0,0,0-.13.28.25.25,0,0,0,0,.18.24.24,0,0,0,.21.12h0a.43.43,0,0,0,.26-.13.8.8,0,0,0,.2-.32.55.55,0,0,0,0-.36,1.53,1.53,0,0,1,.29-.14l.13,0a1.71,1.71,0,0,0-.09.3.86.86,0,0,0,0,.28.32.32,0,0,0,.26.23h.05c.11,0,.23-.08.38-.24A5.42,5.42,0,0,0,12,6.2a1.23,1.23,0,0,0,0,.47.43.43,0,0,0,.26.32.36.36,0,0,0,.32,0,.79.79,0,0,0,.25-.19A.94.94,0,0,0,13,6.56l.08-.14A.11.11,0,0,0,13,6.27Zm-4.44.09a3.74,3.74,0,0,1-.28.42A.74.74,0,0,1,8.14,7L8.06,7A.11.11,0,0,1,8,6.91a.31.31,0,0,1,0-.19,1,1,0,0,1,.08-.26h0v0a.05.05,0,0,0,0,0l.11-.19a1.71,1.71,0,0,1,.21-.26A.89.89,0,0,1,9,5.59H9A8.32,8.32,0,0,1,8.59,6.36Zm1.62.5a.55.55,0,0,1-.15.24c-.07.05-.11.07-.13.06s0-.11.08-.21a1.14,1.14,0,0,1,.22-.22A.51.51,0,0,1,10.21,6.86Zm1.4-.49a3.55,3.55,0,0,1-.29.42.66.66,0,0,1-.16.17l-.08,0A.09.09,0,0,1,11,6.91a.31.31,0,0,1,0-.19.81.81,0,0,1,.08-.25,2.6,2.6,0,0,1,.15-.28,1.71,1.71,0,0,1,.21-.26A.89.89,0,0,1,12,5.59h0A8.72,8.72,0,0,1,11.61,6.37Z"/><path class="cls-1" d="M17.62,3.81a.87.87,0,0,0,0-.25.77.77,0,0,0-.1-.18.41.41,0,0,0-.13-.1.71.71,0,0,0-.94.12,2,2,0,0,0-.34.44,5.53,5.53,0,0,0-.29.64c-.09.23-.18.48-.26.76s-.15.55-.21.83l0-1.1c0-.36,0-.68,0-1s0-.53,0-.72a1.4,1.4,0,0,0-.05-.36c0-.06-.07-.08-.14,0a.09.09,0,0,0-.06.06.14.14,0,0,0,0,.09,1.64,1.64,0,0,1,0,.26c0,.13,0,.3,0,.51s0,.44,0,.71,0,.54,0,.84,0,.6,0,.9,0,.61,0,.91a.68.68,0,0,1-.32.11.1.1,0,0,0-.07,0,.11.11,0,0,0,0,.08.1.1,0,0,0,0,.07.11.11,0,0,0,.08,0A.75.75,0,0,0,15,7.4s0,.08,0,.12v.12c0,.23-.07.46-.09.66s0,.39-.06.55,0,.28,0,.38a.58.58,0,0,0,0,.17.11.11,0,0,0,.12.07.1.1,0,0,0,.08-.06l0-.06c0-.14.05-.34.07-.6s.05-.54.07-.87c0-.1,0-.21,0-.31s0-.22.05-.34A4.25,4.25,0,0,0,16,6.65a8.94,8.94,0,0,0,.68-.8A8,8,0,0,0,17.25,5a3.29,3.29,0,0,0,.33-.81A1.71,1.71,0,0,0,17.62,3.81Zm-.26.31a3,3,0,0,1-.29.71,6.69,6.69,0,0,1-.49.78,7.09,7.09,0,0,1-.59.74,5.17,5.17,0,0,1-.61.57c.06-.35.13-.72.22-1.08a9,9,0,0,1,.29-1A5.43,5.43,0,0,1,16.25,4a1.32,1.32,0,0,1,.43-.51A.48.48,0,0,1,17,3.38a.67.67,0,0,1,.29.08C17.4,3.57,17.44,3.78,17.36,4.12Z"/><path class="cls-1" d="M23.5,6.24a2.36,2.36,0,0,0,0-.28c-.07-.26-.21-.4-.42-.41a.43.43,0,0,0-.31.1.89.89,0,0,0-.3.56s0,0,0,.08l-.26.24a2.37,2.37,0,0,0-.27.28c0-.19,0-.36,0-.53s0-.3,0-.43,0-.26,0-.41a.14.14,0,0,0,0-.06.1.1,0,0,0-.1-.06h-.06l0,0a0,0,0,0,0,0,0,1,1,0,0,0,0,.12c0,.06,0,.08,0,.07-.18-.1-.41-.06-.69.13a2,2,0,0,0-.33.27,2.34,2.34,0,0,0-.29.35l-.06.11,0,0,0,.1s0,.09-.05.17L20,7.16c-.06.18-.13.36-.2.53a2.84,2.84,0,0,1-.24.46.56.56,0,0,1-.25.24h-.08a.23.23,0,0,1-.1-.05A.56.56,0,0,1,19,8a2.9,2.9,0,0,1-.08-.58c0-.22,0-.46,0-.73,0-.11,0-.21,0-.31v0l0-.49c0-.28,0-.55.06-.82s0-.51.09-.73a4.63,4.63,0,0,1,.1-.55,1.43,1.43,0,0,1,.08-.29.09.09,0,0,0,0-.08l0-.08a.12.12,0,0,0-.16,0,.91.91,0,0,0-.11.28c0,.16-.07.34-.11.57s-.06.47-.09.75-.06.56-.08.85l0,.55h0a1.29,1.29,0,0,1-.39.46A.81.81,0,0,1,17.9,7a.31.31,0,0,1-.14,0,.26.26,0,0,1-.15-.07.31.31,0,0,1-.09-.26,1,1,0,0,1,.09-.32.44.44,0,0,0,.27.08.49.49,0,0,0,.19,0,.44.44,0,0,0,.15-.12.7.7,0,0,0,.1-.16,1.34,1.34,0,0,0,.07-.18,1,1,0,0,0,0-.15.35.35,0,0,0,0-.16.13.13,0,0,0-.07-.06.38.38,0,0,0-.36,0,1.33,1.33,0,0,0-.36.35,1.78,1.78,0,0,0-.17.27,1,1,0,0,0-.11.3.71.71,0,0,0,0,.29.5.5,0,0,0,.14.27.52.52,0,0,0,.38.14h.11A1.1,1.1,0,0,0,18.47,7l.22-.21a6.22,6.22,0,0,0,0,.63c0,.61.14,1,.32,1.12a.55.55,0,0,0,.14.09l.12,0h.06l0,0a.58.58,0,0,0,.29-.22A2,2,0,0,0,20,8a5,5,0,0,0,.23-.56c0-.09.07-.18.1-.28a.19.19,0,0,0,.11.09.3.3,0,0,0,.16,0,.6.6,0,0,0,.3-.15c.1-.09.2-.19.31-.31s.2-.26.29-.4l.25-.4c0,.15,0,.32,0,.52s0,.41,0,.63a4.8,4.8,0,0,0-.44.67,4.36,4.36,0,0,0-.26.62,1.78,1.78,0,0,0-.09.52.68.68,0,0,0,.08.37.29.29,0,0,0,.26.15l.14,0c.08,0,.14-.12.21-.26a2.72,2.72,0,0,0,.15-.52c0-.21.08-.44.11-.69s.05-.51.07-.76a5.2,5.2,0,0,1,.57-.59v.13a.67.67,0,0,0,.08.33.43.43,0,0,0,.39.21.45.45,0,0,0,.37-.2.86.86,0,0,0,.13-.23c0-.1,0-.19.07-.29S23.5,6.34,23.5,6.24Zm-5.75-.13s0,0,0,0A1.16,1.16,0,0,1,18,5.83a.59.59,0,0,1,.17-.08.63.63,0,0,1,0,.2.38.38,0,0,1-.14.2l-.08,0a.19.19,0,0,1-.19-.05Zm3.58,0c-.09.14-.19.27-.28.4a2.2,2.2,0,0,1-.29.31.47.47,0,0,1-.24.15h0s0,0-.06-.06a.4.4,0,0,1,0-.22,1,1,0,0,1,.14-.28,2,2,0,0,1,.23-.3,1.87,1.87,0,0,1,.3-.26l.16-.08a.43.43,0,0,1,.19,0c.06,0,.09,0,.11,0S21.42,6,21.33,6.13Zm.22,2c0,.19-.05.36-.08.51a1.92,1.92,0,0,1-.1.37c0,.1-.07.16-.11.17a.1.1,0,0,1-.09,0l0,0a.44.44,0,0,1-.05-.23,1.35,1.35,0,0,1,.06-.37,3,3,0,0,1,.17-.47,3.26,3.26,0,0,1,.29-.55ZM23.26,6.5a.86.86,0,0,1-.05.23.49.49,0,0,1-.1.19.24.24,0,0,1-.19.11.2.2,0,0,1-.19-.1.58.58,0,0,1-.05-.14s0-.1,0-.15l.08,0h.09a.08.08,0,0,0,.08,0s0,0,0-.08,0-.13-.1-.13a.16.16,0,0,1-.16-.09.32.32,0,0,1,0-.3.53.53,0,0,1,.15-.22A.34.34,0,0,1,23,5.77c.09,0,.17.1.21.25a.85.85,0,0,1,0,.23A1.07,1.07,0,0,1,23.26,6.5Z"/></svg>