<svg width="30" height="30" viewBox="0 0 30 30" fill="none" xmlns="http://www.w3.org/2000/svg">
<path d="M21.5375 7.7625V2.9375H16.7625C16.1678 2.93907 15.5795 3.05881 15.0315 3.28974C14.4836 3.52067 13.987 3.8582 13.5706 4.28271C13.1543 4.70722 12.8264 5.21025 12.6061 5.76256C12.3858 6.31488 12.2775 6.90546 12.2875 7.5V11.6H8.89997C8.78394 11.6 8.67266 11.6461 8.59061 11.7281C8.50856 11.8102 8.46247 11.9215 8.46247 12.0375V15.9875C8.46074 16.0454 8.47087 16.1031 8.49225 16.1569C8.51362 16.2108 8.54578 16.2597 8.58676 16.3007C8.62774 16.3417 8.67666 16.3738 8.73052 16.3952C8.78438 16.4166 8.84205 16.4267 8.89997 16.425H12.3125V26.625C12.3125 26.741 12.3586 26.8523 12.4406 26.9344C12.5227 27.0164 12.6339 27.0625 12.75 27.0625H16.7C16.816 27.0625 16.9273 27.0164 17.0093 26.9344C17.0914 26.8523 17.1375 26.741 17.1375 26.625V16.3625H21.1C21.1579 16.3642 21.2156 16.3541 21.2694 16.3327C21.3233 16.3113 21.3722 16.2792 21.4132 16.2382C21.4542 16.1972 21.4863 16.1483 21.5077 16.0944C21.5291 16.0406 21.5392 15.9829 21.5375 15.925V11.975C21.5375 11.859 21.4914 11.7477 21.4093 11.6656C21.3273 11.5836 21.216 11.5375 21.1 11.5375H17.1375V8.6375C17.1358 8.52319 17.1569 8.40969 17.1995 8.3036C17.2421 8.19751 17.3054 8.10094 17.3856 8.01952C17.4659 7.9381 17.5615 7.87345 17.667 7.82933C17.7725 7.7852 17.8856 7.76249 18 7.7625H21.5375Z" fill="white"/>
</svg>
