<svg width="30" height="30" viewBox="0 0 30 30" fill="none" xmlns="http://www.w3.org/2000/svg">
<path d="M21.25 1.1001H8.81251C6.76804 1.1034 4.80825 1.91703 3.3626 3.36269C1.91694 4.80835 1.10331 6.76813 1.10001 8.8126V21.2501C1.10331 23.2946 1.91694 25.2543 3.3626 26.7C4.80825 28.1457 6.76804 28.9593 8.81251 28.9626H21.25C23.2836 28.9429 25.2274 28.122 26.6596 26.6781C28.0918 25.2342 28.8968 23.2838 28.9 21.2501V8.8126C28.8968 6.77889 28.0918 4.82849 26.6596 3.3846C25.2274 1.94072 23.2836 1.11984 21.25 1.1001ZM26.9125 21.2501C26.8963 22.7468 26.2945 24.1777 25.236 25.2361C24.1776 26.2945 22.7468 26.8963 21.25 26.9126H8.81251C7.30491 26.9127 5.85812 26.3181 4.78626 25.2579C3.71439 24.1978 3.10396 22.7576 3.08751 21.2501V8.8126C3.08751 7.29423 3.69067 5.83806 4.76432 4.76441C5.83797 3.69077 7.29414 3.0876 8.81251 3.0876H21.25C22.7684 3.0876 24.2245 3.69077 25.2982 4.76441C26.3718 5.83806 26.975 7.29423 26.975 8.8126L26.9125 21.2501Z" fill="white"/>
<path d="M15 7.8374C13.5834 7.8374 12.1986 8.25748 11.0207 9.0445C9.84286 9.83153 8.92482 10.9502 8.38271 12.2589C7.8406 13.5677 7.69876 15.0078 7.97512 16.3972C8.25149 17.7866 8.93365 19.0629 9.93534 20.0646C10.937 21.0662 12.2133 21.7484 13.6027 22.0248C14.9921 22.3011 16.4322 22.1593 17.741 21.6172C19.0497 21.0751 20.1684 20.157 20.9554 18.9792C21.7424 17.8013 22.1625 16.4165 22.1625 14.9999C22.1592 13.1013 21.4035 11.2814 20.061 9.9389C18.7185 8.59639 16.8986 7.84071 15 7.8374ZM15 20.1749C13.9765 20.1749 12.9759 19.8714 12.1249 19.3028C11.2739 18.7341 10.6106 17.9259 10.2189 16.9803C9.82724 16.0347 9.72475 14.9942 9.92443 13.9903C10.1241 12.9865 10.617 12.0644 11.3407 11.3406C12.0645 10.6169 12.9866 10.124 13.9904 9.92434C14.9943 9.72466 16.0348 9.82714 16.9804 10.2188C17.926 10.6105 18.7342 11.2738 19.3029 12.1248C19.8715 12.9758 20.175 13.9764 20.175 14.9999C20.1717 16.3714 19.6254 17.6857 18.6556 18.6555C17.6858 19.6253 16.3715 20.1716 15 20.1749Z" fill="white"/>
<path d="M22.7125 5.56255C22.4024 5.56008 22.0986 5.64993 21.8397 5.82066C21.5809 5.9914 21.3787 6.2353 21.2589 6.52131C21.1391 6.80732 21.1071 7.12252 21.167 7.42678C21.2269 7.73103 21.3759 8.01059 21.5952 8.22985C21.8145 8.44912 22.094 8.59819 22.3983 8.65808C22.7025 8.71797 23.0177 8.68598 23.3037 8.56617C23.5897 8.44636 23.8336 8.24416 24.0044 7.9853C24.1751 7.72644 24.265 7.42263 24.2625 7.11255C24.2592 6.70247 24.0949 6.31012 23.8049 6.02015C23.5149 5.73017 23.1226 5.56582 22.7125 5.56255Z" fill="white"/>
</svg>
