<svg width="146" height="73" viewBox="0 0 146 73" fill="none" xmlns="http://www.w3.org/2000/svg">
<path d="M68.4114 37.3344C67.9943 37.1258 67.5771 37.3344 67.5771 37.7515C67.3686 38.1686 67.16 38.3772 66.9514 38.7944C66.5343 39.6286 65.7 40.4629 64.8657 40.8801C64.4486 41.0886 64.0314 41.0886 63.6143 40.8801C61.9457 40.2544 61.9457 37.5429 63.6143 32.5372C63.6143 32.1201 63.6143 31.9115 63.6143 31.4944C63.6143 31.4944 63.6143 31.0772 63.1971 30.8686C62.9886 30.6601 62.78 30.6601 62.5714 30.8686C61.5286 30.4515 60.4857 30.4515 59.4428 30.8686C58.1914 31.4944 56.94 32.3286 56.1057 33.3715C55.48 33.9972 55.0628 34.8315 54.4371 35.4572C54.2286 35.6658 54.02 35.8744 54.02 36.2915C53.3943 36.0829 52.56 36.0829 51.9343 36.2915C51.1 36.5001 50.2657 36.9172 49.4314 37.5429L48.8057 36.5001L47.5543 35.4572L46.5114 34.4144C46.0943 33.9972 45.8857 33.3715 46.0943 32.7458C45.8857 31.9115 46.0943 31.2858 46.5114 30.6601C47.1371 30.2429 47.7628 30.0344 48.5971 29.8258C49.2228 29.8258 49.8486 29.8258 50.0571 29.8258C50.0571 30.0344 50.2657 30.2429 50.4743 30.2429C50.6828 30.2429 50.8914 30.2429 51.1 30.2429C51.3086 30.2429 51.5171 30.0344 51.5171 29.8258C51.5171 29.6172 51.5171 29.4086 51.5171 29.2001C50.8914 28.3658 49.64 27.9486 48.5971 28.3658C47.5543 28.5744 46.5114 28.9915 45.6771 29.6172C44.8428 30.2429 44.2171 31.2858 44.2171 32.3286C44.2171 33.1629 44.4257 33.9972 44.8428 34.8315C44.8428 35.2486 44.8428 35.6658 44.8428 36.0829C44.6343 36.7086 44.2171 37.3344 43.8 37.7515C43.3828 38.3772 42.9657 39.0029 42.5486 39.6286C42.1314 40.0458 41.7143 40.4629 41.0886 40.6715C41.0886 40.6715 41.0886 40.6715 40.6714 40.6715C40.6714 40.4629 40.6714 40.4629 40.6714 40.2544C40.6714 39.8372 40.6714 39.4201 40.6714 39.2115C40.6714 38.3772 40.88 37.7515 41.0886 36.9172C41.2971 35.6658 41.7143 34.2058 42.1314 32.9544C42.34 32.5372 42.5486 31.9115 42.5486 31.4944C42.5486 31.4944 42.5486 31.0772 42.1314 30.8686C41.9228 30.6601 41.5057 30.6601 41.2971 30.8686C40.2543 30.4515 39.2114 30.4515 38.1686 30.8686C36.9171 31.4944 35.6657 32.3286 34.8314 33.3715C33.9971 34.2058 33.1628 35.0401 32.3286 36.0829C31.9114 36.7086 31.4943 37.5429 31.0771 38.1686L29.6171 40.4629C28.7828 41.7144 27.9486 43.1744 26.6971 44.4258C25.6543 45.8858 24.4028 47.5544 22.9429 49.2229C21.6914 50.8915 20.2314 52.3515 18.5629 53.8115C17.3114 55.0629 15.8514 56.3144 14.1829 57.3572C12.9314 58.1915 11.2629 58.8172 9.80285 59.0258C7.71714 59.2344 5.84 58.4001 4.58857 56.9401C3.54571 55.8972 2.92 54.6458 2.71143 53.3944C2.50285 51.9344 2.50285 50.2658 2.71143 48.8058C2.71143 47.1372 2.92 45.4686 3.12857 43.8001C3.54571 42.1315 3.96285 40.6715 4.58857 39.2115C5.63143 36.0829 7.09143 33.1629 8.55142 30.4515C10.0114 27.7401 11.4714 25.2372 13.14 22.7344C14.3914 20.2315 15.8514 18.3544 17.52 16.6858C18.98 15.2258 20.0229 14.6001 20.8571 14.3915C21.9 14.1829 22.9429 14.3915 23.7771 14.8086C24.6114 15.2258 25.2371 16.0601 25.6543 16.8944C26.28 17.9372 26.6971 18.9801 26.9057 20.0229C26.9057 21.2744 27.5314 22.3172 27.74 23.5686V23.9858C27.74 24.1944 27.74 24.4029 27.74 24.6115C27.74 24.6115 27.74 24.6115 28.3657 24.6115C28.5743 24.6115 28.7828 24.6115 28.7828 24.6115C28.7828 24.4029 28.7828 24.1944 28.7828 23.9858V23.3601C28.7828 22.9429 28.7828 22.1086 28.7828 21.4829C28.5743 20.6486 28.3657 19.8144 28.1571 19.1886C28.1571 18.3544 27.5314 17.5201 27.1143 16.6858C26.6971 15.8515 26.0714 15.2258 25.4457 14.6001C24.82 13.9744 23.9857 13.5572 23.1514 13.1401C22.1086 12.9315 21.0657 12.9315 20.2314 13.1401C19.6057 13.1401 18.7714 13.5572 17.9371 14.3915C16.8943 15.2258 15.8514 16.2686 14.8086 17.3115C13.5571 18.5629 12.5143 20.0229 11.68 21.6915C10.4286 23.3601 9.38571 25.0286 8.34285 26.9058C7.3 28.7829 6.25714 30.6601 5.42285 32.7458C4.58857 34.6229 3.75428 36.5001 3.33714 38.3772C2.92 40.0458 2.29428 41.7144 1.87714 43.3829C1.46 45.0515 1.25143 46.9286 1.25143 48.5972C1.25143 50.2658 1.25143 51.9344 1.66857 53.6029C2.08571 55.0629 2.92 56.5229 3.96285 57.7744C5.21428 59.4429 7.3 60.4858 9.38571 60.4858H10.4286C12.3057 60.2772 14.1829 59.6515 15.6429 58.6086C17.3114 57.3572 18.98 55.8972 20.44 54.4372C22.1086 52.7686 23.7771 51.1001 25.2371 49.2229C26.6971 47.3458 27.9486 45.6772 28.9914 44.2172C29.4086 43.5915 29.8257 42.9658 30.2428 42.3401V42.7572C30.4514 43.5915 31.2857 44.2172 32.12 44.2172H32.5371C33.58 44.0086 34.6228 43.5915 35.2486 42.7572C36.5 41.2972 37.7514 39.6286 38.5857 37.7515C38.3771 38.5858 38.3771 39.6286 38.5857 40.4629C38.5857 41.0886 39.0028 41.7144 39.42 42.1315C39.6286 42.1315 40.0457 42.1315 40.2543 42.1315C40.6714 42.3401 41.0886 42.3401 41.7143 42.1315C42.34 41.7144 42.9657 41.2972 43.3828 40.6715C44.0086 40.0458 44.4257 39.4201 45.0514 38.5858C45.4686 37.9601 45.8857 37.1258 46.3028 36.5001V36.9172L46.9286 37.9601L47.5543 39.0029L46.72 40.2544L45.6771 41.5058C45.0514 42.1315 44.8428 42.7572 44.6343 43.5915C44.4257 44.0086 44.4257 44.4258 44.6343 44.8429C45.0514 45.4686 45.4686 45.6772 46.0943 45.6772C46.72 45.6772 47.5543 45.2601 47.9714 44.6344C48.5971 44.0086 49.2228 43.1744 49.4314 42.3401C49.64 41.5058 49.64 40.6715 49.4314 39.6286C50.0571 39.2115 50.8914 38.7944 51.5171 38.5858H52.56C52.3514 39.2115 52.1428 40.0458 51.9343 40.6715C51.7257 41.2972 51.7257 42.1315 51.9343 42.7572C52.1428 43.5915 52.9771 44.2172 53.8114 44.4258H54.2286C55.0628 44.4258 55.8971 43.8001 56.94 42.7572C58.6086 40.8801 59.86 39.0029 61.1114 36.9172C60.9028 37.9601 60.9028 39.2115 61.1114 40.2544C61.32 41.2972 61.9457 42.1315 62.9886 42.5486C63.8228 42.9658 64.6571 42.9658 65.2828 42.5486C65.9086 42.1315 66.5343 41.7144 67.16 41.0886C67.5771 40.6715 67.9943 40.0458 68.4114 39.4201L69.0371 38.3772C69.2457 37.9601 69.0371 37.5429 68.4114 37.3344C68.62 37.3344 68.4114 37.3344 68.4114 37.3344ZM36.2914 37.9601C35.6657 39.0029 35.04 40.0458 34.2057 41.0886C33.9971 41.7144 33.58 42.1315 33.1628 42.7572H32.5371C32.3286 42.5486 32.12 42.3401 32.12 42.1315C31.9114 41.7144 31.9114 41.2972 32.12 40.6715C32.3286 40.0458 32.3286 39.4201 32.7457 38.7944L33.58 37.3344C33.9971 36.7086 34.6228 36.0829 35.04 35.4572C36.0828 33.7886 37.5428 32.7458 39.42 32.3286C38.5857 34.2058 37.5428 36.0829 36.5 37.9601H36.2914ZM47.9714 41.5058C47.7628 42.1315 47.3457 42.7572 46.9286 43.1744C46.3028 43.8001 46.0943 43.8001 45.8857 43.8001C45.6771 43.8001 45.8857 42.9658 46.5114 42.3401C46.9286 41.7144 47.5543 41.2972 48.18 40.6715C48.18 40.8801 48.18 41.2972 48.18 41.7144H47.9714V41.5058ZM58.1914 37.9601C57.5657 39.0029 56.94 40.0458 56.1057 41.0886C55.8971 41.5058 55.48 41.9229 54.8543 42.3401H54.2286C54.02 42.3401 54.02 42.1315 53.8114 41.9229C53.6028 41.5058 53.6028 41.0886 53.8114 40.4629C53.8114 39.8372 54.02 39.2115 54.4371 38.5858C54.8543 37.9601 55.0628 37.1258 55.48 36.5001C55.8971 35.8744 56.5228 35.2486 56.94 34.6229C57.9828 33.3715 59.4428 32.3286 60.9028 32.1201C60.0686 33.9972 59.0257 35.8744 57.9828 37.7515H58.1914V37.9601Z" fill="white"/>
<path d="M101.991 19.3972C101.991 18.7714 101.991 18.1457 101.991 17.52C101.783 17.1029 101.574 16.6857 101.366 16.2686C101.157 16.06 100.74 15.6429 100.323 15.6429C98.2371 14.1829 95.3171 14.6 93.44 16.4771C92.3971 17.52 91.5629 18.5629 90.9371 19.6057C90.1029 21.0657 89.4771 22.7343 88.8514 24.1943C88.2257 25.8629 87.6 27.74 86.9743 29.6171C86.3486 31.4943 85.9314 33.58 85.5143 35.6657V27.74C85.5143 25.0286 85.5143 22.7343 85.5143 20.44C85.5143 18.1457 85.5143 16.6857 85.5143 15.2257C85.5143 14.3914 85.3057 13.5571 85.0971 12.5143C85.0971 12.0971 84.68 11.8886 84.0543 12.5143C83.8457 12.5143 83.6371 12.7229 83.6371 12.9314C83.6371 13.14 83.6371 13.3486 83.6371 13.5571C83.6371 14.1829 83.6371 14.8086 83.6371 15.4343C83.6371 16.4771 83.6371 17.52 83.6371 19.1886C83.6371 20.8571 83.6371 22.3171 83.6371 24.4029C83.6371 26.4886 83.6371 28.3657 83.6371 30.4514C83.6371 32.5371 83.6371 34.8314 83.6371 36.9172C83.6371 39.0029 83.6371 41.2971 83.6371 43.5914C83.0114 44.0086 82.1771 44.4257 81.3429 44.4257C81.1343 44.4257 80.9257 44.4257 80.9257 44.4257C80.9257 44.6343 80.9257 44.8429 80.9257 45.0514C80.9257 45.26 80.9257 45.4686 80.9257 45.4686C81.1343 45.4686 81.3429 45.4686 81.5514 45.4686C81.9686 45.4686 82.5943 45.4686 83.0114 45.26C83.0114 45.26 83.0114 45.8857 83.0114 46.0943V46.9286C83.0114 48.5971 82.5943 50.2657 82.3857 51.7257C82.1771 53.1857 82.3857 54.6457 81.9686 55.6886C81.5514 56.94 81.9686 57.7743 81.9686 58.4C81.9686 58.8172 81.9686 59.2343 81.9686 59.6514C82.1771 60.0686 82.3857 60.2771 82.8029 60.0686C83.0114 60.0686 83.22 59.86 83.4286 59.6514V59.2343C83.4286 58.1914 83.8457 56.7314 83.8457 54.8543C84.0543 52.9771 84.2629 50.8914 84.2629 48.5971C84.2629 47.9714 84.2629 47.1371 84.2629 46.3029C84.2629 45.4686 84.2629 44.6343 84.68 43.8C86.7657 42.5486 88.4343 41.2971 90.1029 39.6286C91.7714 37.7514 93.44 35.8743 95.1086 33.7886C96.5686 31.9114 98.0286 29.8257 99.28 27.5314C100.323 25.6543 101.157 23.7771 101.574 21.6914C101.783 21.2743 101.991 20.44 101.991 19.3972ZM100.114 21.6914C99.6971 23.5686 98.8629 25.2371 98.0286 26.9057C96.9857 28.7829 95.7343 30.66 94.4829 32.5371C93.2314 34.4143 91.7714 36.2914 90.1029 37.96C88.6429 39.42 87.1829 40.88 85.7229 42.1314C86.14 39.6286 86.7657 36.9171 87.3914 34.2057C88.0171 31.7029 88.6429 29.4086 89.4771 26.9057C90.1029 24.82 91.1457 22.7343 92.1886 20.8571C92.8143 19.3971 94.0657 18.1457 95.3171 17.1029C95.9429 16.4771 96.7771 16.2686 97.6114 16.2686C98.4457 16.2686 99.0714 16.4772 99.6971 16.8943C100.323 17.7286 100.74 19.1886 100.114 21.6914Z" fill="white"/>
<path d="M144.54 37.1257C144.54 36.5 144.54 35.8743 144.54 35.04C144.123 33.1629 143.08 32.12 141.411 32.12C140.577 32.12 139.743 32.3286 139.117 32.7457C137.866 33.7886 137.24 35.2486 137.031 36.7086C137.031 36.7086 137.031 36.7086 137.031 37.3343L135.154 39.0029C134.529 39.6286 133.694 40.2543 133.277 41.0886C133.277 39.6286 133.277 38.3771 133.277 37.3343C133.277 36.0829 133.277 35.2486 133.277 34.2057C133.277 33.1629 133.277 32.3286 133.277 31.2857C133.277 31.0771 133.277 31.0771 133.277 30.8686C133.069 30.66 132.86 30.4514 132.651 30.4514H132.234C132.234 30.66 132.234 31.0771 132.234 31.2857C132.234 31.7029 132.234 31.9114 132.234 31.7029C130.983 31.0771 129.314 31.2857 127.229 32.7457C126.394 33.3714 125.56 33.9971 124.934 34.6229C124.1 35.4571 123.474 36.2914 122.849 37.1257L122.431 37.96V38.5857C122.431 38.5857 122.431 39.2114 122.014 39.8371L119.303 43.8C118.886 45.0514 118.26 46.5114 117.843 47.5543C117.426 48.8057 116.8 49.8486 116.174 50.8914C115.757 51.7257 115.131 52.3514 114.297 52.56H113.671C113.463 52.56 113.254 52.3514 113.046 52.1429C112.42 51.5171 112.211 50.6829 112.003 49.64C111.586 48.18 111.377 46.9286 111.377 45.4686C111.377 43.8 111.377 42.1314 111.377 40.2543C111.377 39.42 111.377 38.7943 111.377 37.96V34.4143C111.377 32.3286 111.377 30.4514 111.794 28.3657C112.211 26.4886 111.794 24.6114 112.42 23.1514C112.629 21.9 112.837 20.44 113.046 19.1886C113.254 18.5629 113.463 17.7286 113.671 17.1029C113.671 16.8943 113.671 16.6857 113.671 16.4771V16.06C113.254 15.8514 112.837 15.8514 112.42 16.06C112.003 16.6857 111.794 17.3114 111.586 18.1457C111.586 19.3971 111.169 20.6486 110.751 22.3171C110.334 23.9857 110.334 25.6543 110.126 27.74C109.917 29.8257 109.709 31.7029 109.5 33.9971V37.96C108.874 39.2114 107.831 40.4629 106.58 41.2971C105.746 42.1314 104.703 42.5486 103.66 42.7571C103.243 42.7571 103.034 42.7571 102.617 42.7571C102.2 42.7571 101.783 42.5486 101.574 42.34C101.157 41.9229 100.74 41.0886 100.949 40.4629C100.949 39.6286 101.157 38.7943 101.574 38.1686C102.2 38.5857 102.826 38.7943 103.451 38.7943C103.869 38.7943 104.286 38.7943 104.911 38.7943C105.329 38.5857 105.746 38.3771 105.954 37.96C106.163 37.5429 106.58 37.1257 106.58 36.7086C106.789 36.2914 106.997 35.8743 106.997 35.4571C106.997 35.04 106.997 34.8314 106.997 34.4143C106.997 33.9971 106.997 33.58 106.997 33.1629C106.789 32.9543 106.789 32.7457 106.58 32.7457C105.746 32.3286 104.703 32.3286 103.869 32.7457C102.826 33.3714 101.991 34.2057 101.157 35.2486C100.74 35.8743 100.323 36.5 99.9057 37.1257C99.4886 37.7514 99.28 38.5857 99.0714 39.2114C98.8629 39.8371 98.8629 40.6714 99.0714 41.2971C99.28 42.1314 99.4886 42.7571 100.114 43.1743C100.949 43.8 101.783 44.2171 102.826 44.2171H104.286C105.746 44.0086 106.997 43.3829 108.04 42.5486L109.709 41.0886C109.709 42.5486 109.709 44.2171 109.709 45.6771C109.709 50.0571 110.751 52.9771 112.003 53.8114C112.211 54.02 112.629 54.2286 113.046 54.4371H113.88H114.297C115.131 54.2286 115.966 53.6029 116.383 52.7686C117.426 51.9343 118.469 50.8914 119.094 49.8486C119.72 48.5971 120.346 47.1371 120.763 45.8857C120.763 45.26 121.18 44.6343 121.389 43.8C121.597 44.0086 121.806 44.4257 122.223 44.4257C122.64 44.6343 123.057 44.6343 123.474 44.4257C124.309 44.2171 125.143 43.8 125.56 43.3829C126.186 42.7571 127.02 41.9229 127.854 41.0886C128.689 40.2543 129.314 39.2114 129.94 38.1686L131.817 35.2486C131.817 36.2914 131.817 37.5429 131.817 39.0029C131.817 40.4629 131.817 41.9229 131.817 43.5914C130.566 45.0514 129.523 46.72 128.689 48.3886C127.854 49.8486 127.229 51.3086 126.811 52.9771C126.394 54.2286 126.186 55.48 126.186 56.7314C126.186 57.5657 126.394 58.6086 126.811 59.4429C127.229 60.0686 127.854 60.4857 128.689 60.4857H129.731C130.357 60.4857 130.774 59.6514 131.191 58.6086C131.609 57.3571 132.026 56.1057 132.234 54.8543C132.234 53.3943 132.86 51.7257 133.069 49.8486C133.277 47.9714 133.486 46.0943 133.486 44.4257C134.737 42.9657 136.197 41.5057 137.657 40.0457V41.0886C137.657 41.9229 137.866 42.7571 138.283 43.3829C138.909 44.4257 139.951 45.0514 141.203 44.8429C142.246 44.8429 143.289 44.2171 143.914 43.3829C144.331 42.9657 144.54 42.34 144.957 41.7143C144.957 41.0886 144.957 40.2543 145.374 39.6286C145.791 39.0029 144.54 37.7514 144.54 37.1257ZM102.826 36.0829C103.243 35.2486 103.869 34.6229 104.703 33.9971C105.12 33.7886 105.537 33.58 105.954 33.3714C105.954 33.7886 105.954 34.4143 105.954 34.8314C105.746 35.4571 105.329 35.8743 104.911 36.2914H104.286C103.869 36.5 103.243 36.5 102.826 36.0829ZM128.897 36.0829C128.271 37.1257 127.437 37.96 126.811 39.0029C126.186 39.8371 125.56 40.6714 124.726 41.2971C124.309 41.9229 123.683 42.1314 123.057 42.34C123.057 42.34 123.057 42.34 122.64 41.9229C122.431 41.2971 122.431 40.88 122.64 40.2543C122.849 39.6286 123.266 38.7943 123.683 38.1686C124.1 37.3343 124.726 36.7086 125.351 36.0829C125.977 35.4571 126.811 34.8314 127.437 34.2057L128.689 33.58C129.106 33.58 129.523 33.58 130.149 33.58C130.566 33.58 130.774 33.58 130.983 33.58C130.983 33.7886 129.523 35.4571 128.897 36.0829ZM130.566 50.6829C130.566 52.1429 130.149 53.3943 129.94 54.4371C129.731 55.2714 129.523 56.3143 129.314 57.1486C129.314 57.7743 128.897 58.4 128.48 58.4C128.271 58.4 128.063 58.4 127.854 58.4C127.646 57.9829 127.437 57.3571 127.437 56.7314C127.437 55.8971 127.646 54.8543 127.854 54.02C128.271 52.7686 128.48 51.7257 129.106 50.6829C129.731 49.2229 130.357 47.9714 131.191 46.72L130.566 50.6829ZM142.871 39.0029C142.871 39.6286 142.663 40.0457 142.454 40.6714C142.246 41.0886 142.037 41.7143 141.829 42.1314C141.62 42.5486 140.994 42.9657 140.369 42.9657C139.743 42.9657 139.326 42.7571 138.909 42.34C138.7 41.9229 138.7 41.7143 138.491 41.2971C138.491 41.2971 138.491 40.6714 138.491 40.2543H139.117H139.743C139.951 40.2543 140.16 40.2543 140.369 40.2543C140.369 40.2543 140.369 40.2543 140.369 39.6286C140.369 39.0029 140.369 38.5857 139.743 38.5857C139.326 38.5857 138.7 38.3771 138.491 37.96C138.074 37.3343 138.074 36.5 138.491 35.8743C138.7 35.2486 139.117 34.6229 139.534 34.2057C139.951 33.9971 140.369 33.7886 140.786 33.7886C141.411 33.7886 142.037 34.4143 142.246 35.6657C142.246 36.2914 142.246 36.7086 142.246 37.3343C142.663 37.7514 142.871 38.3771 142.871 39.0029Z" fill="white"/>
</svg>
