<svg id="Capa_1" data-name="Capa 1" xmlns="http://www.w3.org/2000/svg" viewBox="0 0 24 24"><defs><style>.cls-1{fill:#1d1d1b;}</style></defs><path class="cls-1" d="M15.44,13.4a.68.68,0,0,0-.8.19l-.73.91A5.39,5.39,0,0,1,9.49,11c-.15-.35.63-1.3.63-1.3a.68.68,0,0,0,0-.62L9.07,6.65H7.79s-1.4,1.71-1.35,2.4c.31,4,5.57,8.45,9.2,8.17.74-.06,2.18-1.49,2.18-1.49l-.05-1.28Z"/><path class="cls-1" d="M12.1.73a11,11,0,0,0-11,11,10.84,10.84,0,0,0,1.63,5.72L.91,23.27l6.36-1.7A11,11,0,1,0,12.1.73Zm0,20.39a9.67,9.67,0,0,1-2.16-.26,9.34,9.34,0,0,1-2.52-1l0,0-2,.54L3.29,21l.62-2,.57-1.82a9.1,9.1,0,0,1-1.07-1.9,9.4,9.4,0,1,1,8.69,5.83Z"/></svg>