<svg id="Capa_1" data-name="Capa 1" xmlns="http://www.w3.org/2000/svg" viewBox="0 0 24 24"><defs><style>.cls-1{fill:#1d1d1b;}</style></defs><path class="cls-1" d="M17,.88H7.05A6.18,6.18,0,0,0,.88,7.05V17a6.18,6.18,0,0,0,6.17,6.17H17A6.18,6.18,0,0,0,23.12,17V7.05A6.18,6.18,0,0,0,17,.88ZM21.53,17A4.58,4.58,0,0,1,17,21.53H7.05A4.58,4.58,0,0,1,2.47,17V7.05A4.58,4.58,0,0,1,7.05,2.47H17a4.58,4.58,0,0,1,4.58,4.58Z"/><path class="cls-1" d="M12,6.27A5.73,5.73,0,1,0,17.73,12,5.74,5.74,0,0,0,12,6.27Zm0,9.87A4.14,4.14,0,1,1,16.14,12,4.15,4.15,0,0,1,12,16.14Z"/><path class="cls-1" d="M18.17,4.45a1.25,1.25,0,1,0,1.24,1.24A1.25,1.25,0,0,0,18.17,4.45Z"/></svg>